# xmcd
#
# Track frame offsets:
#	150
#	12422
#	25870
#	40127
#	51762
#	62395
#	77190
#	90170
#	103147
#	116065
#	125290
#	140852
#	155982
#	171227
#	182202
#	187267
#	199842
#	205462
#	213892
#	226782
#	240655
#	253585
#	260842
#
# Disc length: 3541 seconds
#
# Revision: 1
# Processed by: cddbd v1.5.1PL0 Copyright (c) Steve Scherf et al.
# Submitted via: CDex 1.50Beta5
#
DISCID=510dd317
DTITLE=Song Collection - SF特撮TV主題歌全集
DYEAR=1900
DGENRE=Unclassifiable
TTITLE0=アイアンキング
TTITLE1=ひとり旅
TTITLE2=ジャンボーグA
TTITLE3=輝け!PAT
TTITLE4=戦え! ジャンボーグ9
TTITLE5=エース・アンド・ナイン
TTITLE6=レッドバロン
TTITLE7=SSI
TTITLE8=兄さんのロボット
TTITLE9=たたかいの歌
TTITLE10=飛べ! 宇宙のレッドバロン
TTITLE11=戦え!レッドバロン
TTITLE12=マッハバロン
TTITLE13=眠れマッハバロン
TTITLE14=悪魔くんオープニング
TTITLE15=ジャイアントロボ
TTITLE16=ジャイアントロボ・ソング
TTITLE17=レッドバロン
TTITLE18=戦え!ミラーマン
TTITLE19=朝日に向かってジャンボフェニックス
TTITLE20=ジャンボーグA
TTITLE21=マッハバロン(TVサイズ)
TTITLE22=眠れマッハバロン(TVサイズ)
EXTD=
EXTT0=
EXTT1=
EXTT2=
EXTT3=
EXTT4=
EXTT5=
EXTT6=
EXTT7=
EXTT8=
EXTT9=
EXTT10=
EXTT11=
EXTT12=
EXTT13=
EXTT14=
EXTT15=
EXTT16=
EXTT17=
EXTT18=
EXTT19=
EXTT20=
EXTT21=
EXTT22=
PLAYORDER=
